<?xml version="1.0" encoding="utf-8"?>
<!-- Generator: Adobe Illustrator 27.9.0, SVG Export Plug-In . SVG Version: 6.00 Build 0)  -->
<svg version="1.1" id="Layer_1" xmlns="http://www.w3.org/2000/svg" xmlns:xlink="http://www.w3.org/1999/xlink" x="0px" y="0px"
	 viewBox="0 0 307 307" style="enable-background:new 0 0 307 307;" xml:space="preserve">
<style type="text/css">
	.st0{fill:url(#SVGID_1_);}
</style>
<g>
	<g>
		<linearGradient id="SVGID_1_" gradientUnits="userSpaceOnUse" x1="153.485" y1="10.5754" x2="153.485" y2="296.3946">
			<stop  offset="0" style="stop-color:#97D801"/>
			<stop  offset="1" style="stop-color:#009B51"/>
		</linearGradient>
		<path class="st0" d="M288.9,104.1L288.9,104.1c-4.2-3.1-12.4-7.2-28.2-10.9c-4.7-1.1-10.1-2.2-16.3-3.2c-9-1.4-18.1-2.5-27.1-3.3
			l-1.5-0.1c-2.1-5-4.3-10.1-6.6-15.4c-1.2-2.9-2.4-5.8-3.6-8.8l-0.4-1.1c-4.6-11.3-9.3-22.8-17.6-33.1c-9.2-11.4-21.3-17.7-34-17.7
			s-24.8,6.3-34,17.7c-8.3,10.2-13.1,21.8-17.6,33l-0.5,1.1c-1.2,3.1-2.4,6-3.6,8.8c-2.3,5.4-4.5,10.4-6.6,15.4l-1.5,0.1
			c-10.4,0.9-19.4,2-27.2,3.3c-6.1,1-11.5,2.1-16.2,3.2c-15.7,3.7-23.9,7.8-28.2,10.9l-0.1,0c-1.5,1.1-2.3,3-2,4.8l1.4,10.1
			c2.1,15.2,4.3,33,7.9,51.4c1.5,7.4,3.2,14.9,5.2,22.3c1.8,6.5,3.8,13,6.1,19.4c1.9,5.3,4.1,10.6,6.5,15.7
			c16.3,32.9,46.5,56.8,82.2,65.2c9.3,2.2,18.7,3.3,28.3,3.3c9.7,0,19.1-1.1,28.1-3.2c36.4-8.6,67-33.2,83.1-66.9
			c1.9-4.1,3.6-8.3,5.1-12.5c3-8,5.5-16.2,7.6-24.5c5.9-22.8,8.9-45.9,11.5-65.3l2-15.1C291.2,107,290.4,105.2,288.9,104.1z
			 M120.3,80.9c1.3-3.1,2.6-6.3,3.9-9.3c2.9-7.1,5.6-13.9,9.1-20c1.6-2.8,3.4-5.5,5.4-8c2.6-3.2,8-8.6,15-8.6c7,0,12.4,5.4,15,8.6
			c2,2.5,3.8,5.2,5.4,8c3.4,6.1,6.2,12.9,9.1,20c1.2,3.1,2.5,6.2,3.9,9.3l1.7,4c-10.5-0.4-22.2-0.6-35-0.6s-24.4,0.2-35,0.7
			L120.3,80.9z"/>
	</g>
</g>
</svg>
